<?xml version="1.0" encoding="utf-8"?><svg xmlns="http://www.w3.org/2000/svg" xmlns:xlink="http://www.w3.org/1999/xlink" viewBox="0 0 200 57.62"><defs><style>.cls-1{fill:none;}.cls-2{clip-path:url(#clip-path);}.cls-3{fill:#ff5a5f;}</style><clipPath id="clip-path" transform="translate(0)"><rect class="cls-1" width="200" height="57.62"/></clipPath></defs><title>Asset 1</title><g id="Layer_2" data-name="Layer 2"><g id="Layer_1-2" data-name="Layer 1"><g class="cls-2"><path class="cls-3" d="M19,1.16C20.09,2.5,20.54,5.71,20.63,8c-2-.36-5.36-1.16-6.61-2.59A3.35,3.35,0,0,1,14.38.8,3.2,3.2,0,0,1,16.52,0,3.32,3.32,0,0,1,19,1.16ZM30.09.8a3.28,3.28,0,0,1,.36,4.64C29.2,6.88,25.81,7.68,23.84,8c.09-2.41.54-5.63,1.61-6.88A3.28,3.28,0,0,1,30.09.8ZM.18,10.54a106.88,106.88,0,0,1,2,19.73,117.31,117.31,0,0,1-2,18.57A10.8,10.8,0,0,0,0,50H8.22a1.66,1.66,0,0,1,1.7,1.79v5.54a.34.34,0,0,0,.45.27l7.41-4,3.39-1.79a14.25,14.25,0,0,1,6.61-1.7l16.52.09a106.88,106.88,0,0,1-2-19.73,117.31,117.31,0,0,1,2-18.57,10.8,10.8,0,0,0,.18-1.17Zm35,18.93a12.86,12.86,0,0,1-3.48,7.14,13.12,13.12,0,0,1-7.95,4,7.68,7.68,0,0,1-1.43.09H22c-.26,0-.52,0-.78,0s-.59,0-.91,0a13.27,13.27,0,0,1-6.88-3.21A13.42,13.42,0,0,1,9,28.22,2.13,2.13,0,0,1,9.47,27a1.44,1.44,0,0,1,1.16-.54,1.67,1.67,0,0,1,1.25.45A1.44,1.44,0,0,1,12.41,28a9.44,9.44,0,0,0,3.21,6.79,10,10,0,0,0,5.09,2.41,5.9,5.9,0,0,0,1.25.09,6.76,6.76,0,0,0,1.34-.09,9.82,9.82,0,0,0,5.89-2.95A10.49,10.49,0,0,0,31.79,29a3.35,3.35,0,0,1,0-.45,3.35,3.35,0,0,0,0-.45A1.44,1.44,0,0,1,32.42,27a2.13,2.13,0,0,1,1.25-.45,1.44,1.44,0,0,1,1.16.54,2.13,2.13,0,0,1,.45,1.25A6.41,6.41,0,0,1,35.18,29.47Zm24.91-8.3H64a.42.42,0,0,1,.45.45v4.29a.42.42,0,0,1-.45.45H60.1a.42.42,0,0,0-.45.45v8.3c0,2.23,1.34,2.5,2.14,2.5a.42.42,0,0,1,.45.45v4.29a.42.42,0,0,1-.45.45h-.71a7.22,7.22,0,0,1-7.14-7.14V15.27a.42.42,0,0,1,.45-.45H59.2a.42.42,0,0,1,.45.45v5.45A.42.42,0,0,0,60.1,21.16Zm41.25,9.2a.57.57,0,0,0,0,.54L108.85,42a.43.43,0,0,1-.36.63h-5.71a.46.46,0,0,1-.36-.18L97.6,35.27a.38.38,0,0,0-.63-.09l-1.34,1.43a.69.69,0,0,1,0,.18.69.69,0,0,0,0,.18v5.27a.38.38,0,0,1-.36.36h-5a.38.38,0,0,1-.36-.36V15.18a.38.38,0,0,1,.36-.36h5.09a.38.38,0,0,1,.36.36V28.13a.41.41,0,0,0,.71.27l5.27-5.8c0-.09.18-.18.27-.18h6a.35.35,0,0,1,.27.63ZM76.35,22a10.44,10.44,0,0,0-7.59,3,9.89,9.89,0,0,0-2.95,7.41,10,10,0,0,0,3,7.32A11.12,11.12,0,0,0,84,39.65,9.76,9.76,0,0,0,87,32.23a10.32,10.32,0,0,0-3-7.41A10.67,10.67,0,0,0,76.35,22ZM80,36.34a4.5,4.5,0,0,1-3.57,1.61,4.72,4.72,0,0,1-3.57-1.52,5.54,5.54,0,0,1-1.43-4,5.9,5.9,0,0,1,1.34-4,4.5,4.5,0,0,1,3.57-1.61,4.72,4.72,0,0,1,3.57,1.52,5.69,5.69,0,0,1,1.43,4A5.63,5.63,0,0,1,80,36.34Zm82.51-12.59a9.18,9.18,0,0,0-6-1.79,14.92,14.92,0,0,0-8.75,2.68c-.18.09-.18.36-.09.54l2.05,2.95c.09.18.36.18.54.09A15.24,15.24,0,0,1,152.69,27a10.22,10.22,0,0,1,3.13-.63c2,0,3.13.8,3.39,2.5v.63c-.09.18-.18.27-.36.27H155.1a10.5,10.5,0,0,0-6.16,1.61A5.26,5.26,0,0,0,146.71,36a6,6,0,0,0,2.23,4.91,7.38,7.38,0,0,0,5.36,1.79,6.73,6.73,0,0,0,5.18-2.5c.09-.09.18,0,.18.09v2.05a.38.38,0,0,0,.36.36h4.46a.41.41,0,0,0,.36-.45V29.47A6.6,6.6,0,0,0,162.51,23.75ZM158,37.15a4,4,0,0,1-2.59.89,4.25,4.25,0,0,1-2.32-.54,1.86,1.86,0,0,1-.8-1.7c0-1.43,1.07-2.14,3.39-2.14h3.13a.42.42,0,0,1,.45.45v.54A3.26,3.26,0,0,1,158,37.15Zm41.88,5-7.5-11.25a.57.57,0,0,1,0-.54L199.21,23a.35.35,0,0,0-.27-.63h-6c-.09,0-.27.09-.27.18l-5.27,5.8a.41.41,0,0,1-.71-.27V15.18a.38.38,0,0,0-.36-.36h-5a.38.38,0,0,0-.36.36V42.24a.38.38,0,0,0,.36.36h5a.38.38,0,0,0,.36-.36V37a.69.69,0,0,1,0-.18.69.69,0,0,0,0-.18l1.34-1.43a.38.38,0,0,1,.63.09l4.82,7.14a.46.46,0,0,0,.36.18h5.71C199.93,42.68,200.11,42.41,199.93,42.15ZM112.33,25a10.44,10.44,0,0,1,7.59-3,10.67,10.67,0,0,1,7.59,2.86,10.32,10.32,0,0,1,3,7.41,9.76,9.76,0,0,1-2.95,7.41,11.12,11.12,0,0,1-15.18.09,10,10,0,0,1-3-7.32A9.89,9.89,0,0,1,112.33,25ZM120,37.95a4.5,4.5,0,0,0,3.57-1.61,5.26,5.26,0,0,0,1.34-4,5.69,5.69,0,0,0-1.43-4,4.72,4.72,0,0,0-3.57-1.52,4.5,4.5,0,0,0-3.57,1.61,5.9,5.9,0,0,0-1.34,4,5.54,5.54,0,0,0,1.43,4A4.72,4.72,0,0,0,120,37.95Zm55-23.13h-4.2a.8.8,0,0,0-.8.8v26.7a.38.38,0,0,0,.36.36h5a.38.38,0,0,0,.36-.36V15.63A.68.68,0,0,0,175,14.82Zm-30.54,6.34h-3.93a.42.42,0,0,1-.45-.45V15.27a.42.42,0,0,0-.45-.45h-4.82a.42.42,0,0,0-.45.45V35.63a7.22,7.22,0,0,0,7.14,7.14h.71a.42.42,0,0,0,.45-.45V38a.42.42,0,0,0-.45-.45c-.8,0-2.14-.27-2.14-2.5v-8.3a.42.42,0,0,1,.45-.45h3.93a.42.42,0,0,0,.45-.45V21.61A.42.42,0,0,0,144.48,21.16Z" transform="translate(0)"/></g></g></g></svg>